<?xml version="1.0" encoding="utf-8"?>
<?xml-stylesheet type="text/xsl" href="rss1.xsl"?>
<rss version="2.0" xmlns:atom="http://www.w3.org/2005/Atom" xmlns:content="http://purl.org/rss/1.0/modules/content/" xmlns:dc="http://purl.org/dc/elements/1.1/" xmlns:media="http://search.yahoo.com/mrss/">
<channel>
 <title>Getty</title>
 <link>http://www.gettyimg.com/</link>
 <atom:link href="http://www.gettyimg.com/" rel="self" type="application/rss+xml" />

 
                <item>
                <title><![CDATA[【Music Videos】Armin van Buuren - Turn It Up [4K HEVC 10-bit / PCM]]]></title>
                <link><![CDATA[https://sharemania.us/threads/armin-van-buuren-turn-it-up-4k-hevc-10-bit-pcm.221359/]]></link>
                <description><![CDATA[<article>
<blockquote class="messageText SelectQuoteContainer ugc baseHtml">
<b><img src="https://images2.imgbox.com/33/5c/HgGnePFs_o.jpg" class="bbCodeImage LbImage" alt="[​IMG]" data-url="https://images2.imgbox.com/33/5c/HgGnePFs_o.jpg" style=""> <br>
<br>
Genre: <span style="color: #0059b3">Electronic</span><br>
Style: <span style="color: #0059b3">Psy-Trance</span><br>
Year: <span style="color: #0059b3">2019</span><br>
Video Source: <span style="color: #0059b3">Vimeo, 2160p AVC (H.264)</span><br>
Audio Source: <span style="color: #0059b3">Juno Download, Balance (2019)</span></b><br>
<br>
"<b>Turn It Up</b>" is a song performed by Dutch DJ and record producer Armin van Buuren. It was released on 15 March 2019 by the label Armind on Armada Music, as the ninth single from the album <i>Balance</i>. The song sounds similar with the 2018 Armin van Buuren's previous song "Blah Blah Blah".<br>
<br>
Armin declared about the song: <i>"I'm always excited for the festival season because of the crowd's response to tracks like these. Nothing beats the feeling you get when fans go absolutely nuts to something you play, and 'Turn It Up' was made for that exact purpose. I'm really looking forward to playing this one all throughout the summer."</i><br>
<br>
The music video for "Turn It Up" is created by Zinema Productions. The images that can be seen in the video clip were shot during the festival 'A State Of Trance'. The animations in the clip are designed based on the accompanying artwork. In May 2023, the Official Lyric Video of "Turn It Up" has reached 90 million views on YouTube.<br>
<br>
<b>Release Info</b><br>
The videotrack is downloaded from Vimeo (Zinema Production) and converterd to HEVC (H.265).<br>
The PCM track is lossless (Juno Download, CD quality), synced and edited with Adobe Audition.<br>
<br>
<div class="ToggleTriggerAnchor bbCodeSpoilerContainer">
<button type="button" class="button bbCodeSpoilerButton ToggleTrigger Tooltip JsOnly" data-target="> .SpoilerTarget"><span>Spoiler: <span class="SpoilerTitle">Media Info</span></span></button>
<div class="SpoilerTarget bbCodeSpoilerText">
<div class="bbCodeBlock bbCodeCode">
<div class="type">Code:</div>
<pre>General
Unique ID                      : 9791103120444729394835192390993655457 (0x75DB2A7880354FBBB4C616A49D136A1)
Complete name                  : Armin van Buuren - Turn It Up (Official Lyric Video).mkv
Format                         : Matroska
Format version                 : Version 4
File size                      : 171 MiB
Duration                       : 3 min 3 s
Overall bit rate               : 7 815 kb/s
Encoded date                   : UTC 2023-05-22 23:20:36
Writing application            : mkvmerge v76.0 ('Celebration') 64-bit
Writing library                : libebml v1.4.4 + libmatroska v1.7.1

Video
ID                             : 1
Format                         : HEVC
Format/Info                    : High Efficiency Video Coding
Format profile                 : Main 10@L5@Main
Codec ID                       : V_MPEGH/ISO/HEVC
Duration                       : 3 min 3 s
Bit rate                       : 6 265 kb/s
Width                          : 3 840 pixels
Height                         : 2 160 pixels
Display aspect ratio           : 16:9
Frame rate mode                : Constant
Frame rate                     : 25.000 FPS
Color space                    : YUV
Chroma subsampling             : 4:2:0 (Type 0)
Bit depth                      : 10 bits
Bits/(Pixel*Frame)             : 0.030
Stream size                    : 137 MiB (80%)
Writing library                : x265 3.5+1-f0c1022b6:[Windows][GCC 10.2.0][64 bit] 10bit
Encoding settings              : cpuid=1111039 / frame-threads=6 / numa-pools=32 / wpp / no-pmode / no-pme / no-psnr / no-ssim / log-level=2 / input-csp=1 / input-res=3840x2160 / interlace=0 / total-frames=0 / level-idc=0 / high-tier=1 / uhd-bd=0 / ref=4 / no-allow-non-conformance / no-repeat-headers / annexb / no-aud / no-eob / no-eos / no-hrd / info / hash=0 / no-temporal-layers / open-gop / min-keyint=25 / keyint=250 / gop-lookahead=0 / bframes=4 / b-adapt=2 / b-pyramid / bframe-bias=0 / rc-lookahead=25 / lookahead-slices=4 / scenecut=40 / no-hist-scenecut / radl=0 / no-splice / no-intra-refresh / ctu=64 / min-cu-size=8 / rect / no-amp / max-tu-size=32 / tu-inter-depth=1 / tu-intra-depth=1 / limit-tu=0 / rdoq-level=2 / dynamic-rd=0.00 / no-ssim-rd / signhide / no-tskip / nr-intra=0 / nr-inter=0 / no-constrained-intra / strong-intra-smoothing / max-merge=3 / limit-refs=3 / limit-modes / me=3 / subme=3 / merange=57 / temporal-mvp / no-frame-dup / no-hme / weightp / no-weightb / no-analyze-src-pics / deblock=0:0 / sao / no-sao-non-deblock / rd=4 / selective-sao=4 / no-early-skip / rskip / no-fast-intra / no-tskip-fast / no-cu-lossless / no-b-intra / no-splitrd-skip / rdpenalty=0 / psy-rd=2.00 / psy-rdoq=1.00 / no-rd-refine / no-lossless / cbqpoffs=0 / crqpoffs=0 / rc=crf / crf=20.0 / qcomp=0.60 / qpstep=4 / stats-write=0 / stats-read=0 / ipratio=1.40 / pbratio=1.30 / aq-mode=2 / aq-strength=1.00 / cutree / zone-count=0 / no-strict-cbr / qg-size=32 / no-rc-grain / qpmax=69 / qpmin=0 / no-const-vbv / sar=1 / overscan=0 / videoformat=5 / range=0 / colorprim=1 / transfer=1 / colormatrix=1 / chromaloc=1 / chromaloc-top=0 / chromaloc-bottom=0 / display-window=0 / cll=0,0 / min-luma=0 / max-luma=1023 / log2-max-poc-lsb=8 / vui-timing-info / vui-hrd-info / slices=1 / no-opt-qp-pps / no-opt-ref-list-length-pps / no-multi-pass-opt-rps / scenecut-bias=0.05 / no-opt-cu-delta-qp / no-aq-motion / no-sbrc / no-hdr10 / no-hdr10-opt / no-dhdr10-opt / no-idr-recovery-sei / analysis-reuse-level=0 / analysis-save-reuse-level=0 / analysis-load-reuse-level=0 / scale-factor=0 / refine-intra=0 / refine-inter=0 / refine-mv=1 / refine-ctu-distortion=0 / no-limit-sao / ctu-info=0 / no-lowpass-dct / refine-analysis-type=0 / copy-pic=1 / max-ausize-factor=1.0 / no-dynamic-refine / no-single-sei / no-hevc-aq / no-svt / no-field / qp-adaptation-range=1.00 / scenecut-aware-qp=0conformance-window-offsets / right=0 / bottom=0 / decoder-max-rate=0 / no-vbv-live-multi-pass / no-mcstf
Default                        : Yes
Forced                         : No
Color range                    : Limited
Color primaries                : BT.709
Transfer characteristics       : BT.709
Matrix coefficients            : BT.709

Audio #1
ID                             : 2
Format                         : PCM
Format settings                : Little / Signed
Codec ID                       : A_PCM/INT/LIT
Duration                       : 3 min 3 s
Bit rate mode                  : Constant
Bit rate                       : 1 411.2 kb/s
Channel(s)                     : 2 channels
Sampling rate                  : 44.1 kHz
Frame rate                     : 25.003 FPS (1764 SPF)
Bit depth                      : 16 bits
Stream size                    : 30.8 MiB (18%)
Title                          : Lossless
Language                       : English
Default                        : Yes
Forced                         : No

Audio #2
ID                             : 3
Format                         : AAC LC
Format/Info                    : Advanced Audio Codec Low Complexity
Codec ID                       : A_AAC-2
Duration                       : 3 min 3 s
Bit rate                       : 137 kb/s
Channel(s)                     : 2 channels
Channel layout                 : L R
Sampling rate                  : 48.0 kHz
Frame rate                     : 46.875 FPS (1024 SPF)
Compression mode               : Lossy
Stream size                    : 2.99 MiB (2%)
Language                       : English
Default                        : No
Forced                         : No
</pre>
</div></div>
</div><br>
<div class="bbCodeBlock bbCodeVfcHH HiddenContent">
<div class="attribution type">Hidden Content:</div>
<blockquote>You must reply before you can see the hidden data contained here.</blockquote>
</div>
<div class="messageTextEndMarker">&nbsp;</div>
</blockquote>
</article>]]></description>
                <author><![CDATA[ADHDerby]]></author>
                </item>

                
                <item>
                <title><![CDATA[【Music Videos】Armin Van Buuren - Blah Blah Blah [4K HEVC 10-bit / PCM 24-bit]]]></title>
                <link><![CDATA[https://sharemania.us/threads/armin-van-buuren-blah-blah-blah-4k-hevc-10-bit-pcm-24-bit.221360/]]></link>
                <description><![CDATA[<article>
<blockquote class="messageText SelectQuoteContainer ugc baseHtml">
<b><img src="https://images2.imgbox.com/3e/bf/kiPFbuuw_o.jpg" class="bbCodeImage LbImage" alt="[​IMG]" data-url="https://images2.imgbox.com/3e/bf/kiPFbuuw_o.jpg" style=""> <br>
<br>
Genre: <span style="color: #0059b3">Electronic</span><br>
Style: <span style="color: #0059b3">Psy-Trance</span><br>
Year: <span style="color: #0059b3">2018</span><br>
Video Source: <span style="color: #0059b3">Vimeo, 2160p AVC (H.264)</span><br>
Audio Source: <span style="color: #0059b3">Qobuz Hi-Res, thanks Brungor</span></b><br>
<br>
"<b>Blah Blah Blah</b>" is a song performed by Dutch DJ and record producer Armin van Buuren. It was released on 18 May 2018 by the label Armada Music and Armind, as the first single from the EP of the same name and the fifth single from his seventh studio album <i>Balance</i>. The song is an unlockable in Fuser (a rhythm game developed by Harmonix).<br>
The track was written by van Buuren, British singer and songwriter BullySongs (Andrew Bullimore), and Josh Record. The vocals were performed by Bullimore's younger son Aidan.<br>
<br>
Armin declared about the song: <i>"I wouldn't have dared a record like this maybe five years ago. In the meantime I'm fine with fun, crazy ideas. 'Blah Blah Blah' came from an idea of my daughter. She came home with all the dirty words she picked up in the schoolyard, and made a song out of it. I had to do something with that!"</i>. The song became a huge club hit worldwide.<br>
<br>
The music video for "Blah Blah Blah" is created by Zinema Productions. The images that can be seen in the video clip were shot during the festival 'A State Of Trance'. In May 2023, the Official Lyric Video of "Blah Blah Blah" has reached 669.9 million views on YouTube.<br>
<br>
O ja,.. ja is yes in Dutch.<br>
<br>
<b>Release Info</b><br>
The videotrack is downloaded from Vimeo (Zinema Production) and converterd to HEVC (H.265).<br>
The PCM track is lossless (Qobuz Hi-Res 24-bit), synced and edited with Adobe Audition.<br>
<br>
<div style="text-align: left"><b><span style="color: #ff0000">WARNING: This video contains flashing images.<br>
It may cause discomfort and trigger seizures for people with photosensitive epilepsy.<br>
Viewer discretion is advised.</span></b><br>
​</div>
<div class="ToggleTriggerAnchor bbCodeSpoilerContainer">
<button type="button" class="button bbCodeSpoilerButton ToggleTrigger Tooltip JsOnly" data-target="> .SpoilerTarget"><span>Spoiler: <span class="SpoilerTitle">Media Info</span></span></button>
<div class="SpoilerTarget bbCodeSpoilerText">
<div class="bbCodeBlock bbCodeCode">
<div class="type">Code:</div>
<pre>General
Unique ID                      : 210409087819617424744303005422769236530 (0x9E4B50F7BEEAEF846F753BF3D1CD6A32)
Complete name                  : Armin Van Buuren - Blah Blah Blah (Official Lyric Video).mkv
Format                         : Matroska
Format version                 : Version 4
File size                      : 174 MiB
Duration                       : 3 min 13 s
Overall bit rate               : 7 525 kb/s
Encoded date                   : UTC 2023-05-23 23:14:44
Writing application            : mkvmerge v76.0 ('Celebration') 64-bit
Writing library                : libebml v1.4.4 + libmatroska v1.7.1

Video
ID                             : 1
Format                         : HEVC
Format/Info                    : High Efficiency Video Coding
Format profile                 : Main 10@L5@Main
Codec ID                       : V_MPEGH/ISO/HEVC
Duration                       : 3 min 13 s
Bit rate                       : 5 149 kb/s
Width                          : 3 840 pixels
Height                         : 2 160 pixels
Display aspect ratio           : 16:9
Frame rate mode                : Constant
Frame rate                     : 29.970 (30000/1001) FPS
Color space                    : YUV
Chroma subsampling             : 4:2:0 (Type 0)
Bit depth                      : 10 bits
Bits/(Pixel*Frame)             : 0.021
Stream size                    : 119 MiB (68%)
Writing library                : x265 3.5+1-f0c1022b6:[Windows][GCC 10.2.0][64 bit] 10bit
Encoding settings              : cpuid=1111039 / frame-threads=6 / numa-pools=32 / wpp / no-pmode / no-pme / no-psnr / no-ssim / log-level=2 / input-csp=1 / input-res=3840x2160 / interlace=0 / total-frames=0 / level-idc=0 / high-tier=1 / uhd-bd=0 / ref=4 / no-allow-non-conformance / no-repeat-headers / annexb / no-aud / no-eob / no-eos / no-hrd / info / hash=0 / no-temporal-layers / open-gop / min-keyint=30 / keyint=300 / gop-lookahead=0 / bframes=4 / b-adapt=2 / b-pyramid / bframe-bias=0 / rc-lookahead=25 / lookahead-slices=4 / scenecut=40 / no-hist-scenecut / radl=0 / no-splice / no-intra-refresh / ctu=64 / min-cu-size=8 / rect / no-amp / max-tu-size=32 / tu-inter-depth=1 / tu-intra-depth=1 / limit-tu=0 / rdoq-level=2 / dynamic-rd=0.00 / no-ssim-rd / signhide / no-tskip / nr-intra=0 / nr-inter=0 / no-constrained-intra / strong-intra-smoothing / max-merge=3 / limit-refs=3 / limit-modes / me=3 / subme=3 / merange=57 / temporal-mvp / no-frame-dup / no-hme / weightp / no-weightb / no-analyze-src-pics / deblock=0:0 / sao / no-sao-non-deblock / rd=4 / selective-sao=4 / no-early-skip / rskip / no-fast-intra / no-tskip-fast / no-cu-lossless / no-b-intra / no-splitrd-skip / rdpenalty=0 / psy-rd=2.00 / psy-rdoq=1.00 / no-rd-refine / no-lossless / cbqpoffs=0 / crqpoffs=0 / rc=crf / crf=20.0 / qcomp=0.60 / qpstep=4 / stats-write=0 / stats-read=0 / ipratio=1.40 / pbratio=1.30 / aq-mode=2 / aq-strength=1.00 / cutree / zone-count=0 / no-strict-cbr / qg-size=32 / no-rc-grain / qpmax=69 / qpmin=0 / no-const-vbv / sar=1 / overscan=0 / videoformat=5 / range=0 / colorprim=1 / transfer=1 / colormatrix=1 / chromaloc=1 / chromaloc-top=0 / chromaloc-bottom=0 / display-window=0 / cll=0,0 / min-luma=0 / max-luma=1023 / log2-max-poc-lsb=8 / vui-timing-info / vui-hrd-info / slices=1 / no-opt-qp-pps / no-opt-ref-list-length-pps / no-multi-pass-opt-rps / scenecut-bias=0.05 / no-opt-cu-delta-qp / no-aq-motion / no-sbrc / no-hdr10 / no-hdr10-opt / no-dhdr10-opt / no-idr-recovery-sei / analysis-reuse-level=0 / analysis-save-reuse-level=0 / analysis-load-reuse-level=0 / scale-factor=0 / refine-intra=0 / refine-inter=0 / refine-mv=1 / refine-ctu-distortion=0 / no-limit-sao / ctu-info=0 / no-lowpass-dct / refine-analysis-type=0 / copy-pic=1 / max-ausize-factor=1.0 / no-dynamic-refine / no-single-sei / no-hevc-aq / no-svt / no-field / qp-adaptation-range=1.00 / scenecut-aware-qp=0conformance-window-offsets / right=0 / bottom=0 / decoder-max-rate=0 / no-vbv-live-multi-pass / no-mcstf
Default                        : Yes
Forced                         : No
Color range                    : Limited
Color primaries                : BT.709
Transfer characteristics       : BT.709
Matrix coefficients            : BT.709

Audio #1
ID                             : 2
Format                         : PCM
Format settings                : Little / Signed
Codec ID                       : A_PCM/INT/LIT
Duration                       : 3 min 13 s
Bit rate mode                  : Constant
Bit rate                       : 2 117 kb/s
Channel(s)                     : 2 channels
Sampling rate                  : 44.1 kHz
Frame rate                     : 25.003 FPS (1764 SPF)
Bit depth                      : 24 bits
Stream size                    : 48.9 MiB (28%)
Title                          : Lossless 24-bit
Language                       : English
Default                        : Yes
Forced                         : No

Audio #2
ID                             : 3
Format                         : AAC LC
Format/Info                    : Advanced Audio Codec Low Complexity
Codec ID                       : A_AAC-2
Duration                       : 3 min 13 s
Bit rate                       : 256 kb/s
Channel(s)                     : 2 channels
Channel layout                 : L R
Sampling rate                  : 48.0 kHz
Frame rate                     : 46.875 FPS (1024 SPF)
Compression mode               : Lossy
Stream size                    : 5.92 MiB (3%)
Default                        : No
Forced                         : No
</pre>
</div></div>
</div><br>
<div class="bbCodeBlock bbCodeVfcHH HiddenContent">
<div class="attribution type">Hidden Content:</div>
<blockquote>You must reply before you can see the hidden data contained here.</blockquote>
</div>
<div class="messageTextEndMarker">&nbsp;</div>
</blockquote>
</article>]]></description>
                <author><![CDATA[ADHDerby]]></author>
                </item>

                </channel></rss>